HIERARCHY
ROOT CG
{
	OFFSET -0.000000 -0.000000 27.772259
	CHANNELS 6 Xposition Yposition Zposition Xrotation Yrotation Zrotation
	JOINT Pelvis
	{
		OFFSET 0.000000 0.000000 0.000000
		CHANNELS 3 Xrotation Yrotation Zrotation
		JOINT Spine
		{
			OFFSET 0.000021 -10.490843 -0.495483
			CHANNELS 3 Xrotation Yrotation Zrotation
			JOINT Spine1
			{
				OFFSET 0.000071 -22.678980 0.018061
				CHANNELS 3 Xrotation Yrotation Zrotation
				JOINT Spine2
				{
					OFFSET 0.000071 -22.678967 0.018061
					CHANNELS 3 Xrotation Yrotation Zrotation
					JOINT Spine3
					{
						OFFSET 0.000071 -22.678982 0.018059
						CHANNELS 3 Xrotation Yrotation Zrotation
						JOINT Neck
						{
							OFFSET 0.000069 -22.678986 -1.289251
							CHANNELS 3 Xrotation Yrotation Zrotation
							JOINT Neck1
							{
								OFFSET 0.000051 -16.255905 0.012947
								CHANNELS 3 Xrotation Yrotation Zrotation
								JOINT Head
								{
									OFFSET 0.000033 -10.784607 -0.287502
									CHANNELS 3 Xrotation Yrotation Zrotation
									JOINT Jaw01
									{
										OFFSET 0.000003 7.782959 5.073944
										CHANNELS 3 Xrotation Yrotation Zrotation
										JOINT Jaw02
										{
											OFFSET 0.000129 -34.927139 -18.883980
											CHANNELS 3 Xrotation Yrotation Zrotation
											End Site
											{
												OFFSET -0.000200 8.372803 -38.812450
											}
										}
									}
									JOINT Nose
									{
										OFFSET 0.000090 -25.700912 7.222265
										CHANNELS 3 Xrotation Yrotation Zrotation
										End Site
										{
											OFFSET -0.000092 0.641281 -21.715439
										}
									}
									JOINT L_EyeSocket
									{
										OFFSET 7.352397 -19.832687 14.164183
										CHANNELS 3 Xrotation Yrotation Zrotation
										JOINT L_Eye
										{
											OFFSET -0.000868 -0.001053 0.016003
											CHANNELS 3 Xrotation Yrotation Zrotation
											End Site
											{
												OFFSET -0.001505 -0.001846 0.027969
											}
										}
										JOINT L_Eyelid_Top
										{
											OFFSET -0.001004 -0.002625 0.032516
											CHANNELS 3 Xrotation Yrotation Zrotation
											End Site
											{
												OFFSET -0.013218 0.005753 0.024086
											}
										}
										JOINT L_Eyelid_Bottom
										{
											OFFSET -0.001194 -0.002777 0.035381
											CHANNELS 3 Xrotation Yrotation Zrotation
											End Site
											{
												OFFSET -0.010032 0.008636 -0.024754
											}
										}
									}
									JOINT R_EyeSocket
									{
										OFFSET -7.352180 -19.832779 14.164206
										CHANNELS 3 Xrotation Yrotation Zrotation
										JOINT R_Eye
										{
											OFFSET 0.000875 -0.001068 0.015991
											CHANNELS 3 Xrotation Yrotation Zrotation
											End Site
											{
												OFFSET 0.001505 -0.001846 0.027962
											}
										}
										JOINT R_Eyelid_Top
										{
											OFFSET 0.001021 -0.002625 0.032516
											CHANNELS 3 Xrotation Yrotation Zrotation
											End Site
											{
												OFFSET 0.013214 0.005753 0.024078
											}
										}
										JOINT R_Eyelid_Bottom
										{
											OFFSET 0.001170 -0.002762 0.035366
											CHANNELS 3 Xrotation Yrotation Zrotation
											End Site
											{
												OFFSET 0.010029 0.008636 -0.024746
											}
										}
									}
								}
								JOINT Neck_Fat
								{
									OFFSET 0.000078 -9.595100 -17.491512
									CHANNELS 3 Xrotation Yrotation Zrotation
									End Site
									{
										OFFSET -0.000091 15.369423 -0.000007
									}
								}
							}
						}
						JOINT L_Clavicle
						{
							OFFSET 4.567149 -11.666077 -3.750029
							CHANNELS 3 Xrotation Yrotation Zrotation
							JOINT L_UpperArm
							{
								OFFSET 20.725664 0.000023 -0.000032
								CHANNELS 3 Xrotation Yrotation Zrotation
								JOINT L_Forearm
								{
									OFFSET 5.265114 -0.585732 -20.155697
									CHANNELS 3 Xrotation Yrotation Zrotation
									JOINT L_Hand
									{
										OFFSET 2.653055 -10.877701 -16.383667
										CHANNELS 3 Xrotation Yrotation Zrotation
										JOINT L_Finger0
										{
											OFFSET -4.206129 -4.328926 -5.034346
											CHANNELS 3 Xrotation Yrotation Zrotation
											JOINT L_Finger01
											{
												OFFSET 0.084278 -1.788536 -4.181065
												CHANNELS 3 Xrotation Yrotation Zrotation
												End Site
												{
													OFFSET 3.261873 3.094681 -0.685818
												}
											}
										}
										JOINT L_Finger1
										{
											OFFSET -1.039085 -6.775749 -3.499998
											CHANNELS 3 Xrotation Yrotation Zrotation
											JOINT L_Finger11
											{
												OFFSET 1.320347 -3.040665 -6.425793
												CHANNELS 3 Xrotation Yrotation Zrotation
												End Site
												{
													OFFSET -1.244606 6.832069 -2.013330
												}
											}
										}
										JOINT L_Finger2
										{
											OFFSET 2.531319 -5.656479 -3.286415
											CHANNELS 3 Xrotation Yrotation Zrotation
											JOINT L_Finger21
											{
												OFFSET 1.991673 -2.402008 -5.957748
												CHANNELS 3 Xrotation Yrotation Zrotation
												End Site
												{
													OFFSET -2.793091 5.800865 -1.944178
												}
											}
										}
										JOINT L_Finger3
										{
											OFFSET 5.474087 -3.302322 -2.655975
											CHANNELS 3 Xrotation Yrotation Zrotation
											JOINT L_Finger31
											{
												OFFSET 2.026951 -1.267525 -5.961166
												CHANNELS 3 Xrotation Yrotation Zrotation
												End Site
												{
													OFFSET -4.375191 4.343643 -1.800320
												}
											}
										}
										JOINT L_Finger4
										{
											OFFSET 4.825741 1.085915 -2.321970
											CHANNELS 3 Xrotation Yrotation Zrotation
											JOINT L_Finger41
											{
												OFFSET 3.358269 -1.829636 -3.744434
												CHANNELS 3 Xrotation Yrotation Zrotation
												End Site
												{
													OFFSET -3.843307 2.955185 -2.267633
												}
											}
										}
									}
								}
							}
						}
						JOINT R_Clavicle
						{
							OFFSET -4.567070 -11.666107 -3.750036
							CHANNELS 3 Xrotation Yrotation Zrotation
							JOINT R_UpperArm
							{
								OFFSET -20.725672 -0.000107 0.000038
								CHANNELS 3 Xrotation Yrotation Zrotation
								JOINT R_Forearm
								{
									OFFSET -5.265284 -0.585785 -20.155655
									CHANNELS 3 Xrotation Yrotation Zrotation
									JOINT R_Hand
									{
										OFFSET -2.653109 -10.877747 -16.383663
										CHANNELS 3 Xrotation Yrotation Zrotation
										JOINT R_Finger0
										{
											OFFSET 4.206133 -4.328873 -5.034388
											CHANNELS 3 Xrotation Yrotation Zrotation
											JOINT R_Finger01
											{
												OFFSET -0.084318 -1.788544 -4.181051
												CHANNELS 3 Xrotation Yrotation Zrotation
												End Site
												{
													OFFSET -3.261902 3.094658 -0.685791
												}
											}
										}
										JOINT R_Finger1
										{
											OFFSET 1.039127 -6.775703 -3.499994
											CHANNELS 3 Xrotation Yrotation Zrotation
											JOINT R_Finger11
											{
												OFFSET -1.320362 -3.040680 -6.425779
												CHANNELS 3 Xrotation Yrotation Zrotation
												End Site
												{
													OFFSET 1.244530 6.832085 -2.013342
												}
											}
										}
										JOINT R_Finger2
										{
											OFFSET -2.531284 -5.656471 -3.286409
											CHANNELS 3 Xrotation Yrotation Zrotation
											JOINT R_Finger21
											{
												OFFSET -1.991699 -2.402023 -5.957708
												CHANNELS 3 Xrotation Yrotation Zrotation
												End Site
												{
													OFFSET 2.793015 5.800865 -1.944197
												}
											}
										}
										JOINT R_Finger3
										{
											OFFSET -5.474079 -3.302345 -2.655947
											CHANNELS 3 Xrotation Yrotation Zrotation
											JOINT R_Finger31
											{
												OFFSET -2.026985 -1.267540 -5.961157
												CHANNELS 3 Xrotation Yrotation Zrotation
												End Site
												{
													OFFSET 4.375137 4.343689 -1.800358
												}
											}
										}
										JOINT R_Finger4
										{
											OFFSET -4.825760 1.085907 -2.321926
											CHANNELS 3 Xrotation Yrotation Zrotation
											JOINT R_Finger41
											{
												OFFSET -3.358299 -1.829666 -3.744390
												CHANNELS 3 Xrotation Yrotation Zrotation
												End Site
												{
													OFFSET 3.843262 2.955223 -2.267666
												}
											}
										}
									}
								}
							}
						}
					}
				}
			}
		}
		JOINT Tail01
		{
			OFFSET -0.000049 10.922326 -0.017508
			CHANNELS 3 Xrotation Yrotation Zrotation
			JOINT Tail02
			{
				OFFSET -0.000100 21.986111 0.000013
				CHANNELS 3 Xrotation Yrotation Zrotation
				JOINT Tail03
				{
					OFFSET -0.000100 21.986118 0.000002
					CHANNELS 3 Xrotation Yrotation Zrotation
					JOINT Tail04
					{
						OFFSET -0.000100 21.986122 0.000004
						CHANNELS 3 Xrotation Yrotation Zrotation
						JOINT Tail05
						{
							OFFSET -0.000100 21.986099 0.000010
							CHANNELS 3 Xrotation Yrotation Zrotation
							JOINT Tail06
							{
								OFFSET -0.000100 21.986099 0.000006
								CHANNELS 3 Xrotation Yrotation Zrotation
								JOINT Tail07
								{
									OFFSET -0.000100 21.986099 0.000000
									CHANNELS 3 Xrotation Yrotation Zrotation
									JOINT Tail08
									{
										OFFSET -0.000100 21.984848 0.000050
										CHANNELS 3 Xrotation Yrotation Zrotation
										JOINT Tail09
										{
											OFFSET -0.000103 21.926025 -1.606211
											CHANNELS 3 Xrotation Yrotation Zrotation
											JOINT Tail10
											{
												OFFSET -0.000105 21.750092 -3.203882
												CHANNELS 3 Xrotation Yrotation Zrotation
												End Site
												{
													OFFSET -0.000053 4.767395 21.461668
												}
											}
										}
									}
								}
							}
						}
					}
				}
			}
		}
		JOINT L_Thigh
		{
			OFFSET 24.788780 0.000110 -0.000034
			CHANNELS 3 Xrotation Yrotation Zrotation
			JOINT L_Calf
			{
				OFFSET 4.720823 4.161343 -21.049969
				CHANNELS 3 Xrotation Yrotation Zrotation
				JOINT L_Foot
				{
					OFFSET 2.154083 21.114443 -11.949743
					CHANNELS 3 Xrotation Yrotation Zrotation
					JOINT L_Toe0
					{
						OFFSET 4.557531 9.251856 -8.735286
						CHANNELS 3 Xrotation Yrotation Zrotation
						End Site
						{
							OFFSET 4.555584 -12.646029 1.018752
						}
					}
					JOINT L_Toe1
					{
						OFFSET 2.346270 5.845610 -11.687160
						CHANNELS 3 Xrotation Yrotation Zrotation
						End Site
						{
							OFFSET 5.347996 -12.298262 1.365644
						}
					}
					JOINT L_Toe2
					{
						OFFSET -0.356033 3.902456 -12.541145
						CHANNELS 3 Xrotation Yrotation Zrotation
						End Site
						{
							OFFSET 3.916277 -12.806116 1.542549
						}
					}
					JOINT L_Toe3
					{
						OFFSET -4.603458 3.183916 -12.435249
						CHANNELS 3 Xrotation Yrotation Zrotation
						End Site
						{
							OFFSET 3.810904 -12.587413 2.957583
						}
					}
					JOINT L_Toe4
					{
						OFFSET -7.144381 6.231468 -10.072764
						CHANNELS 3 Xrotation Yrotation Zrotation
						End Site
						{
							OFFSET 3.810902 -12.587412 2.957585
						}
					}
				}
			}
		}
		JOINT R_Thigh
		{
			OFFSET -24.788780 -0.000112 0.000034
			CHANNELS 3 Xrotation Yrotation Zrotation
			JOINT R_Calf
			{
				OFFSET -4.720936 4.161307 -21.049952
				CHANNELS 3 Xrotation Yrotation Zrotation
				JOINT R_Foot
				{
					OFFSET -2.154314 21.114407 -11.949730
					CHANNELS 3 Xrotation Yrotation Zrotation
					JOINT R_Toe0
					{
						OFFSET -4.557631 9.251808 -8.735270
						CHANNELS 3 Xrotation Yrotation Zrotation
						End Site
						{
							OFFSET -4.555466 -12.646067 1.018756
						}
					}
					JOINT R_Toe1
					{
						OFFSET -2.346346 5.845581 -11.687157
						CHANNELS 3 Xrotation Yrotation Zrotation
						End Site
						{
							OFFSET -5.347878 -12.298304 1.365654
						}
					}
					JOINT R_Toe2
					{
						OFFSET 0.355967 3.902464 -12.541145
						CHANNELS 3 Xrotation Yrotation Zrotation
						End Site
						{
							OFFSET -3.916157 -12.806145 1.542559
						}
					}
					JOINT R_Toe3
					{
						OFFSET 4.603399 3.183960 -12.435266
						CHANNELS 3 Xrotation Yrotation Zrotation
						End Site
						{
							OFFSET -3.810780 -12.587443 2.957591
						}
					}
					JOINT R_Toe4
					{
						OFFSET 7.144300 6.231529 -10.072779
						CHANNELS 3 Xrotation Yrotation Zrotation
						End Site
						{
							OFFSET -3.810781 -12.587446 2.957584
						}
					}
				}
			}
		}
	}
}
MOTION
Frames: 4
Frame Time: 0.033333
-0.000000 -0.000000 48.000000 0.000000 -0.000000 -0.000079 -13.074572 -3.625258 0.216261 14.101379 2.434773 -4.987003 0.782104 0.808485 2.333840 -0.390343 0.607610 2.309786 -5.810951 0.648285 2.336788 4.027330 0.075630 -0.245930 -0.208877 -0.024251 -0.236119 3.485733 -1.326477 -2.503903 -9.112527 0.347302 -0.406883 -0.000003 0.000000 0.000000 0.000021 0.000000 -0.000000 0.000001 0.000000 0.000002 0.000093 -0.000057 0.000004 -0.000001 -0.000001 -0.000006 -0.000003 -0.000002 0.000006 -0.000001 0.000000 -0.000001 0.000094 0.000059 -0.000011 -0.000001 -0.000001 -0.000002 -0.000000 -0.000002 0.000004 -0.110956 -0.000000 0.000000 0.000177 4.019560 0.519588 26.658295 -0.980342 -27.339726 -11.955864 2.196686 -2.973487 -60.923819 -16.487759 -15.727405 4.814067 45.237904 32.496876 0.108379 -0.103822 0.046718 31.239844 13.715239 -10.715240 -21.103476 -3.971410 -2.962979 30.256495 6.344527 -6.448704 -32.343241 -14.390466 -8.157542 20.872382 -11.244739 -8.185816 -18.722368 -18.085473 -5.094122 18.635611 -29.682588 -0.393814 0.555229 0.804617 0.101803 0.001236 13.600915 -0.708080 51.597404 18.896354 12.433844 -42.084736 -10.065588 8.009043 -28.468616 0.940306 -12.539866 23.168581 -40.495649 -23.635108 73.197300 28.850699 -49.374201 54.440013 -13.061115 13.768541 57.038910 -12.907330 0.531368 49.052759 -21.219974 10.720546 39.706485 -20.341821 2.365327 27.828515 -15.834088 9.453159 37.792212 -34.843418 8.051126 18.805502 -17.628488 2.382752 68.506114 -58.651593 31.638526 -1.634391 -0.031359 -0.139614 -1.666140 0.367476 -6.125247 -1.899354 0.447524 -4.272661 -0.048142 -0.275518 -1.761260 4.582425 -0.917325 -3.495199 6.507540 -0.723683 -1.539629 7.234213 -0.351022 5.052943 4.726684 1.886782 14.982862 0.560170 4.150210 21.376916 1.071746 11.199159 21.834131 -43.437032 -12.315751 -19.387859 42.500910 4.577313 8.522796 -47.806553 31.841966 -6.218736 45.858139 26.415422 5.832720 56.430610 32.128995 2.701682 67.673788 38.171482 1.612641 74.130905 37.984963 -15.474475 46.840717 38.432826 -2.984445 -37.366845 5.573985 -7.384457 26.091166 -2.055802 -5.644254 -53.507070 -1.589128 27.215437 6.063440 26.117204 -5.603964 10.996540 7.513719 -3.931422 16.301285 -9.964503 -1.750204 18.235413 -15.310868 15.214475 -6.000032 -24.357081 11.013578 
-0.000000 -0.000000 48.000000 0.000000 -0.000000 -0.000079 -13.074572 -3.625258 0.216261 14.101379 2.434773 -4.987003 0.782104 0.808485 2.333840 -0.390343 0.607610 2.309786 -5.810951 0.648285 2.336788 4.027330 0.075630 -0.245930 -0.208877 -0.024251 -0.236119 3.485733 -1.326477 -2.503903 -9.112527 0.347302 -0.406883 -0.000003 0.000000 0.000000 0.000021 0.000000 -0.000000 0.000001 0.000000 0.000002 0.000093 -0.000057 0.000004 -0.000001 -0.000001 -0.000006 -0.000003 -0.000002 0.000006 -0.000001 0.000000 -0.000001 0.000094 0.000059 -0.000011 -0.000001 -0.000001 -0.000002 -0.000000 -0.000002 0.000004 -0.110956 -0.000000 0.000000 0.000177 4.019560 0.519588 26.658295 -0.980342 -27.339726 -11.955864 2.196686 -2.973487 -60.923819 -16.487759 -15.727405 4.814067 45.237904 32.496876 0.108379 -0.103822 0.046718 31.239844 13.715239 -10.715240 -21.103476 -3.971410 -2.962979 30.256495 6.344527 -6.448704 -32.343241 -14.390466 -8.157542 20.872382 -11.244739 -8.185816 -18.722368 -18.085473 -5.094122 18.635611 -29.682588 -0.393814 0.555229 0.804617 0.101803 0.001236 13.600915 -0.708080 51.597404 18.896354 12.433844 -42.084736 -10.065588 8.009043 -28.468616 0.940306 -12.539866 23.168581 -40.495649 -23.635108 73.197300 28.850699 -49.374201 54.440013 -13.061115 13.768541 57.038910 -12.907330 0.531368 49.052759 -21.219974 10.720546 39.706485 -20.341821 2.365327 27.828515 -15.834088 9.453159 37.792212 -34.843418 8.051126 18.805502 -17.628488 2.382752 68.506114 -58.651593 31.638526 -1.634391 -0.031359 -0.139614 -1.666140 0.367476 -6.125247 -1.899354 0.447524 -4.272661 -0.048142 -0.275518 -1.761260 4.582425 -0.917325 -3.495199 6.507540 -0.723683 -1.539629 7.234213 -0.351022 5.052943 4.726684 1.886782 14.982862 0.560170 4.150210 21.376916 1.071746 11.199159 21.834131 -43.437032 -12.315751 -19.387859 42.500910 4.577313 8.522796 -47.806553 31.841966 -6.218736 45.858139 26.415422 5.832720 56.430610 32.128995 2.701682 67.673788 38.171482 1.612641 74.130905 37.984963 -15.474475 46.840717 38.432826 -2.984445 -37.366845 5.573985 -7.384457 26.091166 -2.055802 -5.644254 -53.507070 -1.589128 27.215437 6.063440 26.117204 -5.603964 10.996540 7.513719 -3.931422 16.301285 -9.964503 -1.750204 18.235413 -15.310868 15.214475 -6.000032 -24.357081 11.013578 
0.224248 0.000000 47.177773 0.000000 -0.000000 -0.000079 -13.043379 -3.860291 1.530181 13.523401 2.897079 -4.886727 0.801702 0.509787 1.468212 -0.293995 0.340757 1.457991 -5.711929 0.373203 1.481004 4.615852 0.105746 0.117941 0.057551 0.014195 0.128605 3.632371 -1.047497 -2.066596 -9.095528 0.360251 -0.455205 -0.000003 0.000000 -0.000000 0.000021 0.000000 0.000000 0.000002 0.000001 -0.000003 0.000094 -0.000058 0.000006 0.000003 0.000001 -0.000009 -0.000003 -0.000002 0.000002 0.000001 0.000000 -0.000001 0.000093 0.000058 -0.000008 -0.000000 -0.000003 -0.000000 0.000000 -0.000003 0.000006 -0.120799 -0.000000 -0.000000 0.000138 5.352518 -2.339685 26.080772 -0.267514 -25.347874 -12.637512 2.340713 -3.129301 -59.101238 -18.582134 -14.428713 4.816632 45.238566 32.497289 0.108375 -0.103824 0.046717 31.239841 13.715234 -10.715237 -21.103068 -3.974575 -2.962023 30.256495 6.344526 -6.448698 -32.343329 -14.390201 -8.157653 20.872375 -11.244739 -8.185818 -18.723693 -18.086587 -5.094662 18.635608 -29.682585 -0.393827 0.555233 0.804613 0.101805 0.000749 11.949484 -5.853639 59.240430 22.645528 12.726288 -43.769785 -10.571666 8.162366 -34.257159 -2.516221 -10.785176 17.418519 -36.989238 -22.691856 60.329756 28.990209 -39.622911 46.948845 -10.197425 12.600639 47.839564 -10.994073 -0.433712 43.638126 -18.136657 8.701587 28.675419 -15.135436 0.278692 23.960847 -12.820666 7.356844 30.321624 -29.499529 4.724482 18.322833 -16.327301 1.172649 44.504847 -49.800275 13.752448 -1.634786 -0.031754 -0.139313 -1.643563 0.368800 -6.103806 -1.706163 0.463207 -4.565648 -0.344537 -0.175960 -2.148486 3.710328 -0.889022 -4.513109 6.097713 -0.673861 -3.370501 7.380775 -0.590127 2.919131 6.132026 1.813117 13.570348 1.775332 4.487834 21.599213 0.938771 12.105694 23.519159 -40.431458 -11.569289 -18.477815 46.921019 5.389996 9.167780 -47.736254 33.932585 -11.672042 38.292537 24.748731 7.829856 47.383751 30.315644 5.251375 58.023017 36.726566 4.541344 64.001249 36.786829 -12.088433 35.844621 35.570898 0.243526 -42.050886 8.587902 -8.330715 29.138991 -2.459163 -6.230067 -51.482950 -3.104424 28.057898 6.063437 26.117202 -5.603966 10.996529 7.513721 -3.931424 16.301211 -9.964484 -1.750209 18.235410 -15.310868 15.214472 -6.000035 -24.357095 11.013578 
0.473340 -0.000000 46.235218 0.000000 -0.000000 -0.000079 -13.015550 -3.759363 2.853686 12.794734 3.096343 -4.623878 0.813792 0.205306 0.544457 0.078117 0.075375 0.551688 -5.337018 0.100000 0.572039 4.948931 0.144195 0.483329 0.069006 0.059879 0.494875 3.747350 -0.765437 -1.569920 -9.060213 0.377201 -0.514805 -0.000003 0.000000 0.000000 0.000021 0.000000 0.000000 -0.000000 0.000000 -0.000001 0.000093 -0.000058 0.000008 0.000000 0.000001 -0.000007 -0.000000 -0.000002 0.000004 0.000001 0.000000 -0.000001 0.000093 0.000059 -0.000008 -0.000000 -0.000003 -0.000000 -0.000001 -0.000003 0.000006 -0.129596 -0.000000 -0.000000 0.000084 6.825729 -5.499901 25.554021 -0.106032 -22.975372 -14.269926 2.693368 -3.495755 -56.805830 -20.872901 -12.844506 4.820892 45.239649 32.497975 0.108385 -0.103826 0.046715 31.239834 13.715235 -10.715238 -21.102995 -3.978711 -2.956331 30.256512 6.344531 -6.448705 -32.343664 -14.389197 -8.158046 20.872385 -11.244734 -8.185820 -18.725927 -18.088458 -5.095581 18.635614 -29.682595 -0.393811 0.555223 0.804624 0.101799 -0.000183 10.250552 -11.137623 65.709329 26.733084 11.982199 -42.206874 -10.102127 8.020660 -42.490696 -8.080776 -9.263207 11.933669 -33.362660 -21.125244 47.592458 27.213168 -30.059714 39.998640 -7.159971 11.882811 38.746130 -8.958777 -1.070246 38.976225 -15.014568 7.075984 17.962694 -9.593856 -0.724290 20.600730 -10.003785 5.308763 23.586889 -23.879460 2.349050 18.307400 -15.569814 0.013966 27.939114 -37.633608 3.937715 -1.635676 -0.032409 -0.136363 -1.620647 0.369534 -6.055781 -1.510582 0.476682 -4.960732 -0.547867 -0.082215 -2.562313 2.947255 -0.833752 -5.391511 5.660689 -0.599147 -4.994927 7.246139 -0.890466 0.865708 7.316751 1.602935 11.995088 3.091554 4.723539 21.460055 1.127436 12.975226 24.873642 -36.969437 -11.056415 -17.468258 51.055169 6.193353 9.713546 -46.583526 35.308390 -18.559393 27.841842 23.091083 10.356513 34.074899 27.729569 8.232588 43.956768 34.488736 7.754490 48.908287 34.690917 -7.985081 18.550013 30.483039 4.284678 -46.522655 11.625998 -9.429421 31.601567 -2.807769 -6.687758 -48.940272 -4.642347 29.096773 6.063424 26.117201 -5.603962 10.996524 7.513714 -3.931423 16.301051 -9.964435 -1.750214 18.235405 -15.310866 15.214475 -6.000033 -24.357085 11.013578 
